<?xml version="1.0" encoding="UTF-8" standalone="no"?>
<!DOCTYPE svg PUBLIC "-//W3C//DTD SVG 1.1//EN" "http://www.w3.org/Graphics/SVG/1.1/DTD/svg11.dtd">
<svg xmlns:dc="http://purl.org/dc/elements/1.1/" version="1.1" xmlns="http://www.w3.org/2000/svg" xmlns:xl="http://www.w3.org/1999/xlink" viewBox="260.2274 307.1567 178.025 165.919" width="178.025" height="165.919">
  <defs/>
  <metadata> Produced by OmniGraffle 7.11.1 
    <dc:date>2019-08-08 16:28:18 +0000</dc:date>
  </metadata>
  <g id="Canvas_1" stroke="none" fill="none" fill-opacity="1" stroke-dasharray="none" stroke-opacity="1">
    <title>Canvas 1</title>
    <g id="Canvas_1: Layer 1">
      <title>Layer 1</title>
      <g id="Graphic_2">
        <path d="M 288.0801 426.9442 L 282.3484 426.9442 L 280.858 425.4539 L 280.858 422.9516 L 283.2208 420.5888 L 288.0801 420.5888 Z" fill="black" fill-opacity="0"/>
        <path d="M 288.0801 426.9442 L 282.3484 426.9442 L 280.858 425.4539 L 280.858 422.9516 L 283.2208 420.5888 L 288.0801 420.5888 Z" stroke="red" stroke-linecap="butt" stroke-linejoin="round" stroke-width=".24"/>
      </g>
      <g id="Graphic_3">
        <path d="M 282.9815 434.6478 L 280.2803 431.9465 L 280.2803 427.7146 L 260.3474 427.7146 L 260.3474 441.8698 L 285.4802 441.8698 L 285.4802 434.6478 Z" fill="black" fill-opacity="0"/>
        <path d="M 282.9815 434.6478 L 280.2803 431.9465 L 280.2803 427.7146 L 260.3474 427.7146 L 260.3474 441.8698 L 285.4802 441.8698 L 285.4802 434.6478 Z" stroke="red" stroke-linecap="butt" stroke-linejoin="round" stroke-width=".24"/>
      </g>
      <g id="Graphic_4">
        <path d="M 288.0801 427.7146 L 282.3484 427.7146 L 280.858 429.2049 L 280.858 431.7072 L 283.2208 434.07 L 288.0801 434.07 Z" fill="black" fill-opacity="0"/>
        <path d="M 288.0801 427.7146 L 282.3484 427.7146 L 280.858 429.2049 L 280.858 431.7072 L 283.2208 434.07 L 288.0801 434.07 Z" stroke="red" stroke-linecap="butt" stroke-linejoin="round" stroke-width=".24"/>
      </g>
      <g id="Graphic_5">
        <path d="M 313.9609 342.5094 L 313.9609 324.3954 L 324.3032 324.3954 L 324.3032 338.0464 L 318.376 338.0464 L 318.376 342.5094 Z" fill="black" fill-opacity="0"/>
        <path d="M 313.9609 342.5094 L 313.9609 324.3954 L 324.3032 324.3954 L 324.3032 338.0464 L 318.376 338.0464 L 318.376 342.5094 Z" stroke="red" stroke-linecap="butt" stroke-linejoin="round" stroke-width=".24"/>
      </g>
      <g id="Graphic_6">
        <path d="M 383.5047 355.9307 L 383.5047 359.7509 L 380.5122 362.7433 L 394.6069 376.838 L 404.6162 366.8287 L 386.8446 349.0571 L 381.7379 354.1639 Z" fill="black" fill-opacity="0"/>
        <path d="M 383.5047 355.9307 L 383.5047 359.7509 L 380.5122 362.7433 L 394.6069 376.838 L 404.6162 366.8287 L 386.8446 349.0571 L 381.7379 354.1639 Z" stroke="red" stroke-linecap="butt" stroke-linejoin="round" stroke-width=".24"/>
      </g>
      <g id="Graphic_7">
        <path d="M 320.1806 419.2547 L 320.1806 423.0749 L 317.1882 426.0673 L 331.2829 440.162 L 341.2922 430.1527 L 323.5206 412.3811 L 318.4138 417.4879 Z" fill="black" fill-opacity="0"/>
        <path d="M 320.1806 419.2547 L 320.1806 423.0749 L 317.1882 426.0673 L 331.2829 440.162 L 341.2922 430.1527 L 323.5206 412.3811 L 318.4138 417.4879 Z" stroke="red" stroke-linecap="butt" stroke-linejoin="round" stroke-width=".24"/>
      </g>
      <g id="Graphic_8">
        <path d="M 309.8309 429.6045 L 313.651 429.6045 L 316.6435 426.612 L 330.7382 440.7067 L 320.7289 450.716 L 302.9573 432.9444 L 308.0641 427.8376 Z" fill="black" fill-opacity="0"/>
        <path d="M 309.8309 429.6045 L 313.651 429.6045 L 316.6435 426.612 L 330.7382 440.7067 L 320.7289 450.716 L 302.9573 432.9444 L 308.0641 427.8376 Z" stroke="red" stroke-linecap="butt" stroke-linejoin="round" stroke-width=".24"/>
      </g>
      <g id="Graphic_9">
        <path d="M 282.9815 330.4574 L 280.2803 333.1586 L 280.2803 337.3906 L 260.3474 337.3906 L 260.3474 323.2353 L 285.4802 323.2353 L 285.4802 330.4574 Z" fill="black" fill-opacity="0"/>
        <path d="M 282.9815 330.4574 L 280.2803 333.1586 L 280.2803 337.3906 L 260.3474 337.3906 L 260.3474 323.2353 L 285.4802 323.2353 L 285.4802 330.4574 Z" stroke="red" stroke-linecap="butt" stroke-linejoin="round" stroke-width=".24"/>
      </g>
      <g id="Graphic_10">
        <path d="M 282.9815 345.0941 L 280.2803 342.3929 L 280.2803 338.1609 L 260.3474 338.1609 L 260.3474 352.3162 L 285.4802 352.3162 L 285.4802 345.0941 Z" fill="black" fill-opacity="0"/>
        <path d="M 282.9815 345.0941 L 280.2803 342.3929 L 280.2803 338.1609 L 260.3474 338.1609 L 260.3474 352.3162 L 285.4802 352.3162 L 285.4802 345.0941 Z" stroke="red" stroke-linecap="butt" stroke-linejoin="round" stroke-width=".24"/>
      </g>
      <g id="Graphic_11">
        <path d="M 288.0801 367.2418 L 282.3484 367.2418 L 280.858 365.7514 L 280.858 363.2491 L 283.2208 360.8864 L 288.0801 360.8864 Z" fill="black" fill-opacity="0"/>
        <path d="M 288.0801 367.2418 L 282.3484 367.2418 L 280.858 365.7514 L 280.858 363.2491 L 283.2208 360.8864 L 288.0801 360.8864 Z" stroke="red" stroke-linecap="butt" stroke-linejoin="round" stroke-width=".24"/>
      </g>
      <g id="Graphic_12">
        <path d="M 282.9815 360.3086 L 280.2803 363.0098 L 280.2803 367.2418 L 260.3474 367.2418 L 260.3474 353.0865 L 285.4802 353.0865 L 285.4802 360.3086 Z" fill="black" fill-opacity="0"/>
        <path d="M 282.9815 360.3086 L 280.2803 363.0098 L 280.2803 367.2418 L 260.3474 367.2418 L 260.3474 353.0865 L 285.4802 353.0865 L 285.4802 360.3086 Z" stroke="red" stroke-linecap="butt" stroke-linejoin="round" stroke-width=".24"/>
      </g>
      <g id="Graphic_13">
        <path d="M 362.3966 377.0387 L 362.3966 380.8589 L 359.4042 383.8513 L 373.4989 397.946 L 383.5082 387.9367 L 365.7366 370.1651 L 360.6298 375.2719 Z" fill="black" fill-opacity="0"/>
        <path d="M 362.3966 377.0387 L 362.3966 380.8589 L 359.4042 383.8513 L 373.4989 397.946 L 383.5082 387.9367 L 365.7366 370.1651 L 360.6298 375.2719 Z" stroke="red" stroke-linecap="butt" stroke-linejoin="round" stroke-width=".24"/>
      </g>
      <g id="Graphic_14">
        <path d="M 288.0801 338.1609 L 282.3484 338.1609 L 280.858 339.6512 L 280.858 342.1535 L 283.2208 344.5163 L 288.0801 344.5163 Z" fill="black" fill-opacity="0"/>
        <path d="M 288.0801 338.1609 L 282.3484 338.1609 L 280.858 339.6512 L 280.858 342.1535 L 283.2208 344.5163 L 288.0801 344.5163 Z" stroke="red" stroke-linecap="butt" stroke-linejoin="round" stroke-width=".24"/>
      </g>
      <g id="Graphic_15">
        <path d="M 373.1549 366.2805 L 376.9751 366.2805 L 379.9675 363.288 L 394.0622 377.3827 L 384.0529 387.392 L 366.2813 369.6204 L 371.3881 364.5136 Z" fill="black" fill-opacity="0"/>
        <path d="M 373.1549 366.2805 L 376.9751 366.2805 L 379.9675 363.288 L 394.0622 377.3827 L 384.0529 387.392 L 366.2813 369.6204 L 371.3881 364.5136 Z" stroke="red" stroke-linecap="butt" stroke-linejoin="round" stroke-width=".24"/>
      </g>
      <g id="Graphic_16">
        <path d="M 311.1281 421.0967 L 315.1811 425.1497 L 315.1811 427.2573 L 313.4117 429.0267 L 310.0702 429.0267 L 306.6342 425.5907 Z" fill="black" fill-opacity="0"/>
        <path d="M 311.1281 421.0967 L 315.1811 425.1497 L 315.1811 427.2573 L 313.4117 429.0267 L 310.0702 429.0267 L 306.6342 425.5907 Z" stroke="red" stroke-linecap="butt" stroke-linejoin="round" stroke-width=".24"/>
      </g>
      <g id="Graphic_17">
        <path d="M 332.7809 399.444 L 336.8338 403.4969 L 338.9415 403.4969 L 340.7109 401.7275 L 340.7109 398.386 L 337.2748 394.95 Z" fill="black" fill-opacity="0"/>
        <path d="M 332.7809 399.444 L 336.8338 403.4969 L 338.9415 403.4969 L 340.7109 401.7275 L 340.7109 398.386 L 337.2748 394.95 Z" stroke="red" stroke-linecap="butt" stroke-linejoin="round" stroke-width=".24"/>
      </g>
      <g id="Graphic_18">
        <path d="M 288.0801 457.5658 L 282.3484 457.5658 L 280.858 459.0562 L 280.858 461.5584 L 283.2208 463.9212 L 288.0801 463.9212 Z" fill="black" fill-opacity="0"/>
        <path d="M 288.0801 457.5658 L 282.3484 457.5658 L 280.858 459.0562 L 280.858 461.5584 L 283.2208 463.9212 L 288.0801 463.9212 Z" stroke="red" stroke-linecap="butt" stroke-linejoin="round" stroke-width=".24"/>
      </g>
      <g id="Graphic_19">
        <path d="M 374.4522 357.7727 L 378.5051 361.8256 L 378.5051 363.9333 L 376.7357 365.7027 L 373.3942 365.7027 L 369.9582 362.2667 Z" fill="black" fill-opacity="0"/>
        <path d="M 374.4522 357.7727 L 378.5051 361.8256 L 378.5051 363.9333 L 376.7357 365.7027 L 373.3942 365.7027 L 369.9582 362.2667 Z" stroke="red" stroke-linecap="butt" stroke-linejoin="round" stroke-width=".24"/>
      </g>
      <g id="Graphic_20">
        <path d="M 288.0801 308.3097 L 282.3484 308.3097 L 280.858 309.8 L 280.858 312.3023 L 283.2208 314.6651 L 288.0801 314.6651 Z" fill="black" fill-opacity="0"/>
        <path d="M 288.0801 308.3097 L 282.3484 308.3097 L 280.858 309.8 L 280.858 312.3023 L 283.2208 314.6651 L 288.0801 314.6651 Z" stroke="red" stroke-linecap="butt" stroke-linejoin="round" stroke-width=".24"/>
      </g>
      <g id="Graphic_21">
        <path d="M 288.0801 426.9442 L 282.3484 426.9442 L 280.858 425.4539 L 280.858 422.9516 L 283.2208 420.5888 L 288.0801 420.5888 Z" fill="black" fill-opacity="0"/>
        <path d="M 288.0801 426.9442 L 282.3484 426.9442 L 280.858 425.4539 L 280.858 422.9516 L 283.2208 420.5888 L 288.0801 420.5888 Z" stroke="red" stroke-linecap="butt" stroke-linejoin="round" stroke-width=".24"/>
      </g>
      <g id="Graphic_22">
        <path d="M 288.0801 397.8634 L 282.3484 397.8634 L 280.858 399.3537 L 280.858 401.856 L 283.2208 404.2188 L 288.0801 404.2188 Z" fill="black" fill-opacity="0"/>
        <path d="M 288.0801 397.8634 L 282.3484 397.8634 L 280.858 399.3537 L 280.858 401.856 L 283.2208 404.2188 L 288.0801 404.2188 Z" stroke="red" stroke-linecap="butt" stroke-linejoin="round" stroke-width=".24"/>
      </g>
      <g id="Graphic_23">
        <path d="M 374.9969 357.228 L 379.0498 361.2809 L 381.1575 361.2809 L 382.9269 359.5115 L 382.9269 356.17 L 379.4909 352.734 Z" fill="black" fill-opacity="0"/>
        <path d="M 374.9969 357.228 L 379.0498 361.2809 L 381.1575 361.2809 L 382.9269 359.5115 L 382.9269 356.17 L 379.4909 352.734 Z" stroke="red" stroke-linecap="butt" stroke-linejoin="round" stroke-width=".24"/>
      </g>
      <g id="Graphic_24">
        <path d="M 288.0801 338.1609 L 282.3484 338.1609 L 280.858 339.6512 L 280.858 342.1535 L 283.2208 344.5163 L 288.0801 344.5163 Z" fill="black" fill-opacity="0"/>
        <path d="M 288.0801 338.1609 L 282.3484 338.1609 L 280.858 339.6512 L 280.858 342.1535 L 283.2208 344.5163 L 288.0801 344.5163 Z" stroke="red" stroke-linecap="butt" stroke-linejoin="round" stroke-width=".24"/>
      </g>
      <g id="Graphic_25">
        <path d="M 353.8889 378.336 L 357.9418 382.3889 L 360.0495 382.3889 L 361.8189 380.6195 L 361.8189 377.278 L 358.3828 373.842 Z" fill="black" fill-opacity="0"/>
        <path d="M 353.8889 378.336 L 357.9418 382.3889 L 360.0495 382.3889 L 361.8189 380.6195 L 361.8189 377.278 L 358.3828 373.842 Z" stroke="red" stroke-linecap="butt" stroke-linejoin="round" stroke-width=".24"/>
      </g>
      <g id="Graphic_26">
        <path d="M 288.0801 427.7146 L 282.3484 427.7146 L 280.858 429.2049 L 280.858 431.7072 L 283.2208 434.07 L 288.0801 434.07 Z" fill="black" fill-opacity="0"/>
        <path d="M 288.0801 427.7146 L 282.3484 427.7146 L 280.858 429.2049 L 280.858 431.7072 L 283.2208 434.07 L 288.0801 434.07 Z" stroke="red" stroke-linecap="butt" stroke-linejoin="round" stroke-width=".24"/>
      </g>
      <g id="Graphic_27">
        <path d="M 332.2362 399.9887 L 336.2891 404.0417 L 336.2891 406.1493 L 334.5197 407.9187 L 331.1782 407.9187 L 327.7422 404.4827 Z" fill="black" fill-opacity="0"/>
        <path d="M 332.2362 399.9887 L 336.2891 404.0417 L 336.2891 406.1493 L 334.5197 407.9187 L 331.1782 407.9187 L 327.7422 404.4827 Z" stroke="red" stroke-linecap="butt" stroke-linejoin="round" stroke-width=".24"/>
      </g>
      <g id="Graphic_28">
        <path d="M 288.0801 367.2418 L 282.3484 367.2418 L 280.858 365.7514 L 280.858 363.2491 L 283.2208 360.8864 L 288.0801 360.8864 Z" fill="black" fill-opacity="0"/>
        <path d="M 288.0801 367.2418 L 282.3484 367.2418 L 280.858 365.7514 L 280.858 363.2491 L 283.2208 360.8864 L 288.0801 360.8864 Z" stroke="red" stroke-linecap="butt" stroke-linejoin="round" stroke-width=".24"/>
      </g>
      <g id="Graphic_29">
        <path d="M 311.6729 420.552 L 315.7258 424.6049 L 317.8335 424.6049 L 319.6029 422.8355 L 319.6029 419.494 L 316.1668 416.058 Z" fill="black" fill-opacity="0"/>
        <path d="M 311.6729 420.552 L 315.7258 424.6049 L 317.8335 424.6049 L 319.6029 422.8355 L 319.6029 419.494 L 316.1668 416.058 Z" stroke="red" stroke-linecap="butt" stroke-linejoin="round" stroke-width=".24"/>
      </g>
      <g id="Graphic_30">
        <path d="M 288.0801 337.3906 L 282.3484 337.3906 L 280.858 335.9002 L 280.858 333.3979 L 283.2208 331.0351 L 288.0801 331.0351 Z" fill="black" fill-opacity="0"/>
        <path d="M 288.0801 337.3906 L 282.3484 337.3906 L 280.858 335.9002 L 280.858 333.3979 L 283.2208 331.0351 L 288.0801 331.0351 Z" stroke="red" stroke-linecap="butt" stroke-linejoin="round" stroke-width=".24"/>
      </g>
      <g id="Graphic_31">
        <path d="M 353.3442 378.8807 L 357.3971 382.9337 L 357.3971 385.0413 L 355.6277 386.8107 L 352.2862 386.8107 L 348.8502 383.3747 Z" fill="black" fill-opacity="0"/>
        <path d="M 353.3442 378.8807 L 357.3971 382.9337 L 357.3971 385.0413 L 355.6277 386.8107 L 352.2862 386.8107 L 348.8502 383.3747 Z" stroke="red" stroke-linecap="butt" stroke-linejoin="round" stroke-width=".24"/>
      </g>
      <g id="Graphic_32">
        <path d="M 288.0801 456.7955 L 282.3484 456.7955 L 280.858 455.3051 L 280.858 452.8028 L 283.2208 450.44 L 288.0801 450.44 Z" fill="black" fill-opacity="0"/>
        <path d="M 288.0801 456.7955 L 282.3484 456.7955 L 280.858 455.3051 L 280.858 452.8028 L 283.2208 450.44 L 288.0801 450.44 Z" stroke="red" stroke-linecap="butt" stroke-linejoin="round" stroke-width=".24"/>
      </g>
      <g id="Graphic_33">
        <path d="M 282.9815 374.9453 L 280.2803 372.2441 L 280.2803 368.0121 L 260.3474 368.0121 L 260.3474 382.1674 L 285.4802 382.1674 L 285.4802 374.9453 Z" fill="black" fill-opacity="0"/>
        <path d="M 282.9815 374.9453 L 280.2803 372.2441 L 280.2803 368.0121 L 260.3474 368.0121 L 260.3474 382.1674 L 285.4802 382.1674 L 285.4802 374.9453 Z" stroke="red" stroke-linecap="butt" stroke-linejoin="round" stroke-width=".24"/>
      </g>
      <g id="Graphic_34">
        <path d="M 288.0801 368.0121 L 282.3484 368.0121 L 280.858 369.5025 L 280.858 372.0048 L 283.2208 374.3676 L 288.0801 374.3676 Z" fill="black" fill-opacity="0"/>
        <path d="M 288.0801 368.0121 L 282.3484 368.0121 L 280.858 369.5025 L 280.858 372.0048 L 283.2208 374.3676 L 288.0801 374.3676 Z" stroke="red" stroke-linecap="butt" stroke-linejoin="round" stroke-width=".24"/>
      </g>
      <g id="Graphic_35">
        <rect x="326.545" y="352.8939" width="14.6368" height="10.3881" fill="black" fill-opacity="0"/>
        <rect x="326.545" y="352.8939" width="14.6368" height="10.3881" stroke="red" stroke-linecap="butt" stroke-linejoin="round" stroke-width=".24"/>
      </g>
      <g id="Graphic_36">
        <rect x="314.4119" y="352.8939" width="11.5554" height="19.7728" fill="black" fill-opacity="0"/>
        <rect x="314.4119" y="352.8939" width="11.5554" height="19.7728" stroke="red" stroke-linecap="butt" stroke-linejoin="round" stroke-width=".24"/>
      </g>
      <g id="Graphic_37">
        <rect x="298.6197" y="352.8939" width="15.2145" height="10.9659" fill="black" fill-opacity="0"/>
        <rect x="298.6197" y="352.8939" width="15.2145" height="10.9659" stroke="red" stroke-linecap="butt" stroke-linejoin="round" stroke-width=".24"/>
      </g>
      <g id="Graphic_38">
        <rect x="298.6197" y="365.0329" width="15.2145" height="7.6338" fill="black" fill-opacity="0"/>
        <rect x="298.6197" y="365.0329" width="15.2145" height="7.6338" stroke="red" stroke-linecap="butt" stroke-linejoin="round" stroke-width=".24"/>
      </g>
      <g id="Graphic_39">
        <path d="M 350.8112 352.8939 L 350.8112 360.7704 L 353.3228 363.282 L 354.2354 363.282 L 364.6234 352.8939 Z" fill="black" fill-opacity="0"/>
        <path d="M 350.8112 352.8939 L 350.8112 360.7704 L 353.3228 363.282 L 354.2354 363.282 L 364.6234 352.8939 Z" stroke="red" stroke-linecap="butt" stroke-linejoin="round" stroke-width=".24"/>
      </g>
      <g id="Graphic_40">
        <path d="M 335.7719 381.7455 L 353.3705 364.1468 L 350.2334 361.0096 L 350.2334 359.1182 L 341.7595 359.1182 L 341.7595 363.8598 L 332.9005 363.8598 L 332.9005 378.9959 L 335.65 381.7455 Z" fill="black" fill-opacity="0"/>
        <path d="M 335.7719 381.7455 L 353.3705 364.1468 L 350.2334 361.0096 L 350.2334 359.1182 L 341.7595 359.1182 L 341.7595 363.8598 L 332.9005 363.8598 L 332.9005 378.9959 L 335.65 381.7455 Z" stroke="red" stroke-linecap="butt" stroke-linejoin="round" stroke-width=".24"/>
      </g>
      <g id="Graphic_41">
        <path d="M 326.545 372.6405 L 330.3863 376.4818 L 332.3227 374.5453 L 332.3227 363.8598 L 326.545 363.8598 Z" fill="black" fill-opacity="0"/>
        <path d="M 326.545 372.6405 L 330.3863 376.4818 L 332.3227 374.5453 L 332.3227 363.8598 L 326.545 363.8598 Z" stroke="red" stroke-linecap="butt" stroke-linejoin="round" stroke-width=".24"/>
      </g>
      <g id="Graphic_42">
        <rect x="326.545" y="352.8939" width="14.6368" height="10.3881" fill="black" fill-opacity="0"/>
        <rect x="326.545" y="352.8939" width="14.6368" height="10.3881" stroke="red" stroke-linecap="butt" stroke-linejoin="round" stroke-width=".24"/>
      </g>
      <g id="Graphic_43">
        <rect x="343.1961" y="352.8939" width="7.0373" height="5.6465" fill="black" fill-opacity="0"/>
        <rect x="343.1961" y="352.8939" width="7.0373" height="5.6465" stroke="red" stroke-linecap="butt" stroke-linejoin="round" stroke-width=".24"/>
      </g>
      <g id="Graphic_44">
        <rect x="300.9308" y="379.416" width="13.4811" height="10.7438" fill="black" fill-opacity="0"/>
        <rect x="300.9308" y="379.416" width="13.4811" height="10.7438" stroke="red" stroke-linecap="butt" stroke-linejoin="round" stroke-width=".24"/>
      </g>
      <g id="Graphic_45">
        <path d="M 288.0801 397.093 L 282.3484 397.093 L 280.858 395.6027 L 280.858 393.1004 L 283.2208 390.7376 L 288.0801 390.7376 Z" fill="black" fill-opacity="0"/>
        <path d="M 288.0801 397.093 L 282.3484 397.093 L 280.858 395.6027 L 280.858 393.1004 L 283.2208 390.7376 L 288.0801 390.7376 Z" stroke="red" stroke-linecap="butt" stroke-linejoin="round" stroke-width=".24"/>
      </g>
      <g id="Graphic_46">
        <path d="M 301.4503 445.6784 L 301.4503 441.4127 L 297.9697 437.932 L 302.4126 433.4892 L 319.0881 450.1647 L 312.5124 456.7404 Z" fill="black" fill-opacity="0"/>
        <path d="M 301.4503 445.6784 L 301.4503 441.4127 L 297.9697 437.932 L 302.4126 433.4892 L 319.0881 450.1647 L 312.5124 456.7404 Z" stroke="red" stroke-linecap="butt" stroke-linejoin="round" stroke-width=".24"/>
      </g>
      <g id="Graphic_47">
        <path d="M 300.2854 445.6029 L 313.0637 458.3812 L 300.961 470.4839 L 300.2854 469.8082 Z" fill="black" fill-opacity="0"/>
        <path d="M 300.2854 445.6029 L 313.0637 458.3812 L 300.961 470.4839 L 300.2854 469.8082 Z" stroke="red" stroke-linecap="butt" stroke-linejoin="round" stroke-width=".24"/>
      </g>
      <g id="Graphic_48">
        <path d="M 299.515 464.0137 L 299.515 469.4612 L 296.0205 472.9557 L 289.6859 472.9557 L 289.6859 464.0137 Z" fill="black" fill-opacity="0"/>
        <path d="M 299.515 464.0137 L 299.515 469.4612 L 296.0205 472.9557 L 289.6859 472.9557 L 289.6859 464.0137 Z" stroke="red" stroke-linecap="butt" stroke-linejoin="round" stroke-width=".24"/>
      </g>
      <g id="Graphic_49">
        <path d="M 341.2886 398.1467 L 341.2886 401.9669 L 338.2962 404.9593 L 352.3909 419.054 L 362.4002 409.0447 L 344.6286 391.2731 L 339.5218 396.3799 Z" fill="black" fill-opacity="0"/>
        <path d="M 341.2886 398.1467 L 341.2886 401.9669 L 338.2962 404.9593 L 352.3909 419.054 L 362.4002 409.0447 L 344.6286 391.2731 L 339.5218 396.3799 Z" stroke="red" stroke-linecap="butt" stroke-linejoin="round" stroke-width=".24"/>
      </g>
      <g id="Graphic_50">
        <path d="M 352.0469 387.3885 L 355.867 387.3885 L 358.8595 384.396 L 372.9542 398.4907 L 362.9449 408.5 L 345.1733 390.7284 L 350.2801 385.6216 Z" fill="black" fill-opacity="0"/>
        <path d="M 352.0469 387.3885 L 355.867 387.3885 L 358.8595 384.396 L 372.9542 398.4907 L 362.9449 408.5 L 345.1733 390.7284 L 350.2801 385.6216 Z" stroke="red" stroke-linecap="butt" stroke-linejoin="round" stroke-width=".24"/>
      </g>
      <g id="Graphic_51">
        <path d="M 417.7476 367.0382 L 417.7476 357.0502 L 415.1966 354.4992 L 406.5985 363.0973 L 408.436 364.9347 L 408.436 367.0382 Z" fill="black" fill-opacity="0"/>
        <path d="M 417.7476 367.0382 L 417.7476 357.0502 L 415.1966 354.4992 L 406.5985 363.0973 L 408.436 364.9347 L 408.436 367.0382 Z" stroke="red" stroke-linecap="butt" stroke-linejoin="round" stroke-width=".24"/>
      </g>
      <g id="Graphic_52">
        <path d="M 415.7413 353.9545 L 418.5179 356.7311 L 418.5179 367.0382 L 438.1324 367.0382 L 438.1324 350.312 L 422.4644 350.312 L 420.9241 348.7717 Z" fill="black" fill-opacity="0"/>
        <path d="M 415.7413 353.9545 L 418.5179 356.7311 L 418.5179 367.0382 L 438.1324 367.0382 L 438.1324 350.312 L 422.4644 350.312 L 420.9241 348.7717 Z" stroke="red" stroke-linecap="butt" stroke-linejoin="round" stroke-width=".24"/>
      </g>
      <g id="Graphic_53">
        <path d="M 405.0421 354.0771 L 398.998 360.1211 L 403.7416 364.8647 L 409.7857 358.8206 Z" fill="black" fill-opacity="0"/>
        <path d="M 405.0421 354.0771 L 398.998 360.1211 L 403.7416 364.8647 L 409.7857 358.8206 Z" stroke="red" stroke-linecap="butt" stroke-linejoin="round" stroke-width=".24"/>
      </g>
      <g id="Graphic_54">
        <path d="M 393.2256 354.3487 L 398.4533 359.5764 L 401.8799 356.1498 L 396.6522 350.9221 Z" fill="black" fill-opacity="0"/>
        <path d="M 393.2256 354.3487 L 398.4533 359.5764 L 401.8799 356.1498 L 396.6522 350.9221 Z" stroke="red" stroke-linecap="butt" stroke-linejoin="round" stroke-width=".24"/>
      </g>
      <g id="Graphic_55">
        <path d="M 358.5857 310.6971 L 355.506 310.6971 L 355.506 336.7959 L 358.3076 336.7959 L 358.3076 340.6141 L 367.4315 340.6141 L 367.4315 336.7959 L 373.2531 336.7959 L 373.2531 310.6971 L 370.6763 310.6971 L 370.6763 307.9285 L 358.5857 307.9285 Z" fill="black" fill-opacity="0"/>
        <path d="M 358.5857 310.6971 L 355.506 310.6971 L 355.506 336.7959 L 358.3076 336.7959 L 358.3076 340.6141 L 367.4315 340.6141 L 367.4315 336.7959 L 373.2531 336.7959 L 373.2531 310.6971 L 370.6763 310.6971 L 370.6763 307.9285 L 358.5857 307.9285 Z" stroke="red" stroke-linecap="butt" stroke-linejoin="round" stroke-width=".24"/>
      </g>
      <g id="Graphic_56">
        <path d="M 399.6313 310.6971 L 396.8456 310.6971 L 396.8456 336.7959 L 412.1691 336.7959 L 412.1691 310.6971 L 412.1691 307.2767 L 399.6313 307.2767 Z" fill="black" fill-opacity="0"/>
        <path d="M 399.6313 310.6971 L 396.8456 310.6971 L 396.8456 336.7959 L 412.1691 336.7959 L 412.1691 310.6971 L 412.1691 307.2767 L 399.6313 307.2767 Z" stroke="red" stroke-linecap="butt" stroke-linejoin="round" stroke-width=".24"/>
      </g>
      <g id="Graphic_57">
        <path d="M 436.7429 334.6959 L 436.7429 314.3962 L 425.3228 314.3962 L 425.3228 338.5551 L 417.1986 338.5551 L 417.1986 342.5648 L 421.739 347.1052 L 424.9908 343.8535 L 426.288 345.1508 Z" fill="black" fill-opacity="0"/>
        <path d="M 436.7429 334.6959 L 436.7429 314.3962 L 425.3228 314.3962 L 425.3228 338.5551 L 417.1986 338.5551 L 417.1986 342.5648 L 421.739 347.1052 L 424.9908 343.8535 L 426.288 345.1508 Z" stroke="red" stroke-linecap="butt" stroke-linejoin="round" stroke-width=".24"/>
      </g>
      <g id="Graphic_58">
        <path d="M 330.9389 408.4965 L 334.759 408.4965 L 337.7515 405.504 L 351.8462 419.5987 L 341.8369 429.608 L 324.0653 411.8364 L 329.1721 406.7296 Z" fill="black" fill-opacity="0"/>
        <path d="M 330.9389 408.4965 L 334.759 408.4965 L 337.7515 405.504 L 351.8462 419.5987 L 341.8369 429.608 L 324.0653 411.8364 L 329.1721 406.7296 Z" stroke="red" stroke-linecap="butt" stroke-linejoin="round" stroke-width=".24"/>
      </g>
      <g id="Graphic_59">
        <path d="M 288.0801 337.3906 L 282.3484 337.3906 L 280.858 335.9002 L 280.858 333.3979 L 283.2208 331.0351 L 288.0801 331.0351 Z" fill="black" fill-opacity="0"/>
        <path d="M 288.0801 337.3906 L 282.3484 337.3906 L 280.858 335.9002 L 280.858 333.3979 L 283.2208 331.0351 L 288.0801 331.0351 Z" stroke="red" stroke-linecap="butt" stroke-linejoin="round" stroke-width=".24"/>
      </g>
      <g id="Graphic_60">
        <path d="M 332.7809 399.444 L 336.8338 403.4969 L 338.9415 403.4969 L 340.7109 401.7275 L 340.7109 398.386 L 337.2748 394.95 Z" fill="black" fill-opacity="0"/>
        <path d="M 332.7809 399.444 L 336.8338 403.4969 L 338.9415 403.4969 L 340.7109 401.7275 L 340.7109 398.386 L 337.2748 394.95 Z" stroke="red" stroke-linecap="butt" stroke-linejoin="round" stroke-width=".24"/>
      </g>
      <g id="Graphic_61">
        <path d="M 353.8889 378.336 L 357.9418 382.3889 L 360.0495 382.3889 L 361.8189 380.6195 L 361.8189 377.278 L 358.3828 373.842 Z" fill="black" fill-opacity="0"/>
        <path d="M 353.8889 378.336 L 357.9418 382.3889 L 360.0495 382.3889 L 361.8189 380.6195 L 361.8189 377.278 L 358.3828 373.842 Z" stroke="red" stroke-linecap="butt" stroke-linejoin="round" stroke-width=".24"/>
      </g>
      <g id="Graphic_62">
        <path d="M 353.3442 378.8807 L 357.3971 382.9337 L 357.3971 385.0413 L 355.6277 386.8107 L 352.2862 386.8107 L 348.8502 383.3747 Z" fill="black" fill-opacity="0"/>
        <path d="M 353.3442 378.8807 L 357.3971 382.9337 L 357.3971 385.0413 L 355.6277 386.8107 L 352.2862 386.8107 L 348.8502 383.3747 Z" stroke="red" stroke-linecap="butt" stroke-linejoin="round" stroke-width=".24"/>
      </g>
      <g id="Graphic_63">
        <path d="M 374.4522 357.7727 L 378.5051 361.8256 L 378.5051 363.9333 L 376.7357 365.7027 L 373.3942 365.7027 L 369.9582 362.2667 Z" fill="black" fill-opacity="0"/>
        <path d="M 374.4522 357.7727 L 378.5051 361.8256 L 378.5051 363.9333 L 376.7357 365.7027 L 373.3942 365.7027 L 369.9582 362.2667 Z" stroke="red" stroke-linecap="butt" stroke-linejoin="round" stroke-width=".24"/>
      </g>
      <g id="Graphic_64">
        <path d="M 374.9969 357.228 L 379.0498 361.2809 L 381.1575 361.2809 L 382.9269 359.5115 L 382.9269 356.17 L 379.4909 352.734 Z" fill="black" fill-opacity="0"/>
        <path d="M 374.9969 357.228 L 379.0498 361.2809 L 381.1575 361.2809 L 382.9269 359.5115 L 382.9269 356.17 L 379.4909 352.734 Z" stroke="red" stroke-linecap="butt" stroke-linejoin="round" stroke-width=".24"/>
      </g>
      <g id="Graphic_65">
        <path d="M 332.2362 399.9887 L 336.2891 404.0417 L 336.2891 406.1493 L 334.5197 407.9187 L 331.1782 407.9187 L 327.7422 404.4827 Z" fill="black" fill-opacity="0"/>
        <path d="M 332.2362 399.9887 L 336.2891 404.0417 L 336.2891 406.1493 L 334.5197 407.9187 L 331.1782 407.9187 L 327.7422 404.4827 Z" stroke="red" stroke-linecap="butt" stroke-linejoin="round" stroke-width=".24"/>
      </g>
      <g id="Graphic_66">
        <path d="M 311.6729 420.552 L 315.7258 424.6049 L 317.8335 424.6049 L 319.6029 422.8355 L 319.6029 419.494 L 316.1668 416.058 Z" fill="black" fill-opacity="0"/>
        <path d="M 311.6729 420.552 L 315.7258 424.6049 L 317.8335 424.6049 L 319.6029 422.8355 L 319.6029 419.494 L 316.1668 416.058 Z" stroke="red" stroke-linecap="butt" stroke-linejoin="round" stroke-width=".24"/>
      </g>
      <g id="Graphic_67">
        <path d="M 311.1281 421.0967 L 315.1811 425.1497 L 315.1811 427.2573 L 313.4117 429.0267 L 310.0702 429.0267 L 306.6342 425.5907 Z" fill="black" fill-opacity="0"/>
        <path d="M 311.1281 421.0967 L 315.1811 425.1497 L 315.1811 427.2573 L 313.4117 429.0267 L 310.0702 429.0267 L 306.6342 425.5907 Z" stroke="red" stroke-linecap="butt" stroke-linejoin="round" stroke-width=".24"/>
      </g>
      <g id="Graphic_68">
        <path d="M 282.9815 449.8623 L 280.2803 452.5635 L 280.2803 456.7955 L 260.3474 456.7955 L 260.3474 442.6402 L 285.4802 442.6402 L 285.4802 449.8623 Z" fill="black" fill-opacity="0"/>
        <path d="M 282.9815 449.8623 L 280.2803 452.5635 L 280.2803 456.7955 L 260.3474 456.7955 L 260.3474 442.6402 L 285.4802 442.6402 L 285.4802 449.8623 Z" stroke="red" stroke-linecap="butt" stroke-linejoin="round" stroke-width=".24"/>
      </g>
      <g id="Graphic_69">
        <path d="M 288.0801 456.7955 L 282.3484 456.7955 L 280.858 455.3051 L 280.858 452.8028 L 283.2208 450.44 L 288.0801 450.44 Z" fill="black" fill-opacity="0"/>
        <path d="M 288.0801 456.7955 L 282.3484 456.7955 L 280.858 455.3051 L 280.858 452.8028 L 283.2208 450.44 L 288.0801 450.44 Z" stroke="red" stroke-linecap="butt" stroke-linejoin="round" stroke-width=".24"/>
      </g>
      <g id="Graphic_70">
        <path d="M 282.9815 464.499 L 280.2803 461.7978 L 280.2803 457.5658 L 260.3474 457.5658 L 260.3474 471.7211 L 285.4802 471.7211 L 285.4802 464.499 Z" fill="black" fill-opacity="0"/>
        <path d="M 282.9815 464.499 L 280.2803 461.7978 L 280.2803 457.5658 L 260.3474 457.5658 L 260.3474 471.7211 L 285.4802 471.7211 L 285.4802 464.499 Z" stroke="red" stroke-linecap="butt" stroke-linejoin="round" stroke-width=".24"/>
      </g>
      <g id="Graphic_71">
        <path d="M 288.0801 457.5658 L 282.3484 457.5658 L 280.858 459.0562 L 280.858 461.5584 L 283.2208 463.9212 L 288.0801 463.9212 Z" fill="black" fill-opacity="0"/>
        <path d="M 288.0801 457.5658 L 282.3484 457.5658 L 280.858 459.0562 L 280.858 461.5584 L 283.2208 463.9212 L 288.0801 463.9212 Z" stroke="red" stroke-linecap="butt" stroke-linejoin="round" stroke-width=".24"/>
      </g>
      <g id="Graphic_72">
        <path d="M 282.9815 315.2429 L 280.2803 312.5416 L 280.2803 308.3097 L 260.3474 308.3097 L 260.3474 322.4649 L 285.4802 322.4649 L 285.4802 315.2429 Z" fill="black" fill-opacity="0"/>
        <path d="M 282.9815 315.2429 L 280.2803 312.5416 L 280.2803 308.3097 L 260.3474 308.3097 L 260.3474 322.4649 L 285.4802 322.4649 L 285.4802 315.2429 Z" stroke="red" stroke-linecap="butt" stroke-linejoin="round" stroke-width=".24"/>
      </g>
      <g id="Graphic_73">
        <path d="M 288.0801 308.3097 L 282.3484 308.3097 L 280.858 309.8 L 280.858 312.3023 L 283.2208 314.6651 L 288.0801 314.6651 Z" fill="black" fill-opacity="0"/>
        <path d="M 288.0801 308.3097 L 282.3484 308.3097 L 280.858 309.8 L 280.858 312.3023 L 283.2208 314.6651 L 288.0801 314.6651 Z" stroke="red" stroke-linecap="butt" stroke-linejoin="round" stroke-width=".24"/>
      </g>
      <g id="Graphic_74">
        <path d="M 282.9815 404.7965 L 280.2803 402.0953 L 280.2803 397.8634 L 260.3474 397.8634 L 260.3474 412.0186 L 285.4802 412.0186 L 285.4802 404.7965 Z" fill="black" fill-opacity="0"/>
        <path d="M 282.9815 404.7965 L 280.2803 402.0953 L 280.2803 397.8634 L 260.3474 397.8634 L 260.3474 412.0186 L 285.4802 412.0186 L 285.4802 404.7965 Z" stroke="red" stroke-linecap="butt" stroke-linejoin="round" stroke-width=".24"/>
      </g>
      <g id="Graphic_75">
        <path d="M 288.0801 397.8634 L 282.3484 397.8634 L 280.858 399.3537 L 280.858 401.856 L 283.2208 404.2188 L 288.0801 404.2188 Z" fill="black" fill-opacity="0"/>
        <path d="M 288.0801 397.8634 L 282.3484 397.8634 L 280.858 399.3537 L 280.858 401.856 L 283.2208 404.2188 L 288.0801 404.2188 Z" stroke="red" stroke-linecap="butt" stroke-linejoin="round" stroke-width=".24"/>
      </g>
      <g id="Graphic_76">
        <path d="M 282.9815 390.1598 L 280.2803 392.8611 L 280.2803 397.093 L 260.3474 397.093 L 260.3474 382.9377 L 285.4802 382.9377 L 285.4802 390.1598 Z" fill="black" fill-opacity="0"/>
        <path d="M 282.9815 390.1598 L 280.2803 392.8611 L 280.2803 397.093 L 260.3474 397.093 L 260.3474 382.9377 L 285.4802 382.9377 L 285.4802 390.1598 Z" stroke="red" stroke-linecap="butt" stroke-linejoin="round" stroke-width=".24"/>
      </g>
      <g id="Graphic_77">
        <path d="M 288.0801 397.093 L 282.3484 397.093 L 280.858 395.6027 L 280.858 393.1004 L 283.2208 390.7376 L 288.0801 390.7376 Z" fill="black" fill-opacity="0"/>
        <path d="M 288.0801 397.093 L 282.3484 397.093 L 280.858 395.6027 L 280.858 393.1004 L 283.2208 390.7376 L 288.0801 390.7376 Z" stroke="red" stroke-linecap="butt" stroke-linejoin="round" stroke-width=".24"/>
      </g>
      <g id="Graphic_78">
        <path d="M 282.9815 420.011 L 280.2803 422.7123 L 280.2803 426.9442 L 260.3474 426.9442 L 260.3474 412.789 L 285.4802 412.789 L 285.4802 420.011 Z" fill="black" fill-opacity="0"/>
        <path d="M 282.9815 420.011 L 280.2803 422.7123 L 280.2803 426.9442 L 260.3474 426.9442 L 260.3474 412.789 L 285.4802 412.789 L 285.4802 420.011 Z" stroke="red" stroke-linecap="butt" stroke-linejoin="round" stroke-width=".24"/>
      </g>
      <g id="Graphic_79">
        <path d="M 297.8493 390.9302 L 297.8493 420.7575 L 321.4295 397.1773 L 315.1823 390.9302 Z" fill="black" fill-opacity="0"/>
        <path d="M 297.8493 390.9302 L 297.8493 420.7575 L 321.4295 397.1773 L 315.1823 390.9302 Z" stroke="#3fbf7f" stroke-linecap="butt" stroke-linejoin="round" stroke-width=".24"/>
      </g>
      <g id="Graphic_80">
        <path d="M 282.9815 360.3086 L 280.2803 363.0098 L 280.2803 367.2418 L 260.3474 367.2418 L 260.3474 353.0865 L 285.4802 353.0865 L 285.4802 360.3086 Z" fill="black" fill-opacity="0"/>
        <path d="M 282.9815 360.3086 L 280.2803 363.0098 L 280.2803 367.2418 L 260.3474 367.2418 L 260.3474 353.0865 L 285.4802 353.0865 L 285.4802 360.3086 Z" stroke="red" stroke-linecap="butt" stroke-linejoin="round" stroke-width=".24"/>
      </g>
      <g id="Graphic_81">
        <path d="M 282.9815 434.6478 L 280.2803 431.9465 L 280.2803 427.7146 L 260.3474 427.7146 L 260.3474 441.8698 L 285.4802 441.8698 L 285.4802 434.6478 Z" fill="black" fill-opacity="0"/>
        <path d="M 282.9815 434.6478 L 280.2803 431.9465 L 280.2803 427.7146 L 260.3474 427.7146 L 260.3474 441.8698 L 285.4802 441.8698 L 285.4802 434.6478 Z" stroke="red" stroke-linecap="butt" stroke-linejoin="round" stroke-width=".24"/>
      </g>
      <g id="Graphic_82">
        <path d="M 330.9389 408.4965 L 334.759 408.4965 L 337.7515 405.504 L 351.8462 419.5987 L 341.8369 429.608 L 324.0653 411.8364 L 329.1721 406.7296 Z" fill="black" fill-opacity="0"/>
        <path d="M 330.9389 408.4965 L 334.759 408.4965 L 337.7515 405.504 L 351.8462 419.5987 L 341.8369 429.608 L 324.0653 411.8364 L 329.1721 406.7296 Z" stroke="red" stroke-linecap="butt" stroke-linejoin="round" stroke-width=".24"/>
      </g>
      <g id="Graphic_83">
        <path d="M 282.9815 390.1598 L 280.2803 392.8611 L 280.2803 397.093 L 260.3474 397.093 L 260.3474 382.9377 L 285.4802 382.9377 L 285.4802 390.1598 Z" fill="black" fill-opacity="0"/>
        <path d="M 282.9815 390.1598 L 280.2803 392.8611 L 280.2803 397.093 L 260.3474 397.093 L 260.3474 382.9377 L 285.4802 382.9377 L 285.4802 390.1598 Z" stroke="red" stroke-linecap="butt" stroke-linejoin="round" stroke-width=".24"/>
      </g>
      <g id="Graphic_84">
        <path d="M 282.9815 404.7965 L 280.2803 402.0953 L 280.2803 397.8634 L 260.3474 397.8634 L 260.3474 412.0186 L 285.4802 412.0186 L 285.4802 404.7965 Z" fill="black" fill-opacity="0"/>
        <path d="M 282.9815 404.7965 L 280.2803 402.0953 L 280.2803 397.8634 L 260.3474 397.8634 L 260.3474 412.0186 L 285.4802 412.0186 L 285.4802 404.7965 Z" stroke="red" stroke-linecap="butt" stroke-linejoin="round" stroke-width=".24"/>
      </g>
      <g id="Graphic_85">
        <path d="M 383.5047 355.9307 L 383.5047 359.7509 L 380.5122 362.7433 L 394.6069 376.838 L 404.6162 366.8287 L 386.8446 349.0571 L 381.7379 354.1639 Z" fill="black" fill-opacity="0"/>
        <path d="M 383.5047 355.9307 L 383.5047 359.7509 L 380.5122 362.7433 L 394.6069 376.838 L 404.6162 366.8287 L 386.8446 349.0571 L 381.7379 354.1639 Z" stroke="red" stroke-linecap="butt" stroke-linejoin="round" stroke-width=".24"/>
      </g>
      <g id="Graphic_86">
        <path d="M 362.3966 377.0387 L 362.3966 380.8589 L 359.4042 383.8513 L 373.4989 397.946 L 383.5082 387.9367 L 365.7366 370.1651 L 360.6298 375.2719 Z" fill="black" fill-opacity="0"/>
        <path d="M 362.3966 377.0387 L 362.3966 380.8589 L 359.4042 383.8513 L 373.4989 397.946 L 383.5082 387.9367 L 365.7366 370.1651 L 360.6298 375.2719 Z" stroke="red" stroke-linecap="butt" stroke-linejoin="round" stroke-width=".24"/>
      </g>
      <g id="Graphic_87">
        <path d="M 282.9815 315.2429 L 280.2803 312.5416 L 280.2803 308.3097 L 260.3474 308.3097 L 260.3474 322.4649 L 285.4802 322.4649 L 285.4802 315.2429 Z" fill="black" fill-opacity="0"/>
        <path d="M 282.9815 315.2429 L 280.2803 312.5416 L 280.2803 308.3097 L 260.3474 308.3097 L 260.3474 322.4649 L 285.4802 322.4649 L 285.4802 315.2429 Z" stroke="red" stroke-linecap="butt" stroke-linejoin="round" stroke-width=".24"/>
      </g>
      <g id="Graphic_88">
        <path d="M 282.9815 464.499 L 280.2803 461.7978 L 280.2803 457.5658 L 260.3474 457.5658 L 260.3474 471.7211 L 285.4802 471.7211 L 285.4802 464.499 Z" fill="black" fill-opacity="0"/>
        <path d="M 282.9815 464.499 L 280.2803 461.7978 L 280.2803 457.5658 L 260.3474 457.5658 L 260.3474 471.7211 L 285.4802 471.7211 L 285.4802 464.499 Z" stroke="red" stroke-linecap="butt" stroke-linejoin="round" stroke-width=".24"/>
      </g>
      <g id="Graphic_89">
        <path d="M 373.1549 366.2805 L 376.9751 366.2805 L 379.9675 363.288 L 394.0622 377.3827 L 384.0529 387.392 L 366.2813 369.6204 L 371.3881 364.5136 Z" fill="black" fill-opacity="0"/>
        <path d="M 373.1549 366.2805 L 376.9751 366.2805 L 379.9675 363.288 L 394.0622 377.3827 L 384.0529 387.392 L 366.2813 369.6204 L 371.3881 364.5136 Z" stroke="red" stroke-linecap="butt" stroke-linejoin="round" stroke-width=".24"/>
      </g>
      <g id="Graphic_90">
        <path d="M 282.9815 449.8623 L 280.2803 452.5635 L 280.2803 456.7955 L 260.3474 456.7955 L 260.3474 442.6402 L 285.4802 442.6402 L 285.4802 449.8623 Z" fill="black" fill-opacity="0"/>
        <path d="M 282.9815 449.8623 L 280.2803 452.5635 L 280.2803 456.7955 L 260.3474 456.7955 L 260.3474 442.6402 L 285.4802 442.6402 L 285.4802 449.8623 Z" stroke="red" stroke-linecap="butt" stroke-linejoin="round" stroke-width=".24"/>
      </g>
      <g id="Graphic_91">
        <path d="M 309.8309 429.6045 L 313.651 429.6045 L 316.6435 426.612 L 330.7382 440.7067 L 320.7289 450.716 L 302.9573 432.9444 L 308.0641 427.8376 Z" fill="black" fill-opacity="0"/>
        <path d="M 309.8309 429.6045 L 313.651 429.6045 L 316.6435 426.612 L 330.7382 440.7067 L 320.7289 450.716 L 302.9573 432.9444 L 308.0641 427.8376 Z" stroke="red" stroke-linecap="butt" stroke-linejoin="round" stroke-width=".24"/>
      </g>
      <g id="Graphic_92">
        <path d="M 282.9815 330.4574 L 280.2803 333.1586 L 280.2803 337.3906 L 260.3474 337.3906 L 260.3474 323.2353 L 285.4802 323.2353 L 285.4802 330.4574 Z" fill="black" fill-opacity="0"/>
        <path d="M 282.9815 330.4574 L 280.2803 333.1586 L 280.2803 337.3906 L 260.3474 337.3906 L 260.3474 323.2353 L 285.4802 323.2353 L 285.4802 330.4574 Z" stroke="red" stroke-linecap="butt" stroke-linejoin="round" stroke-width=".24"/>
      </g>
      <g id="Graphic_93">
        <path d="M 282.9815 345.0941 L 280.2803 342.3929 L 280.2803 338.1609 L 260.3474 338.1609 L 260.3474 352.3162 L 285.4802 352.3162 L 285.4802 345.0941 Z" fill="black" fill-opacity="0"/>
        <path d="M 282.9815 345.0941 L 280.2803 342.3929 L 280.2803 338.1609 L 260.3474 338.1609 L 260.3474 352.3162 L 285.4802 352.3162 L 285.4802 345.0941 Z" stroke="red" stroke-linecap="butt" stroke-linejoin="round" stroke-width=".24"/>
      </g>
      <g id="Graphic_94">
        <path d="M 320.1806 419.2547 L 320.1806 423.0749 L 317.1882 426.0673 L 331.2829 440.162 L 341.2922 430.1527 L 323.5206 412.3811 L 318.4138 417.4879 Z" fill="black" fill-opacity="0"/>
        <path d="M 320.1806 419.2547 L 320.1806 423.0749 L 317.1882 426.0673 L 331.2829 440.162 L 341.2922 430.1527 L 323.5206 412.3811 L 318.4138 417.4879 Z" stroke="red" stroke-linecap="butt" stroke-linejoin="round" stroke-width=".24"/>
      </g>
      <g id="Graphic_95">
        <path d="M 352.0469 387.3885 L 355.867 387.3885 L 358.8595 384.396 L 372.9542 398.4907 L 362.9449 408.5 L 345.1733 390.7284 L 350.2801 385.6216 Z" fill="black" fill-opacity="0"/>
        <path d="M 352.0469 387.3885 L 355.867 387.3885 L 358.8595 384.396 L 372.9542 398.4907 L 362.9449 408.5 L 345.1733 390.7284 L 350.2801 385.6216 Z" stroke="red" stroke-linecap="butt" stroke-linejoin="round" stroke-width=".24"/>
      </g>
      <g id="Graphic_96">
        <path d="M 341.2886 398.1467 L 341.2886 401.9669 L 338.2962 404.9593 L 352.3909 419.054 L 362.4002 409.0447 L 344.6286 391.2731 L 339.5218 396.3799 Z" fill="black" fill-opacity="0"/>
        <path d="M 341.2886 398.1467 L 341.2886 401.9669 L 338.2962 404.9593 L 352.3909 419.054 L 362.4002 409.0447 L 344.6286 391.2731 L 339.5218 396.3799 Z" stroke="red" stroke-linecap="butt" stroke-linejoin="round" stroke-width=".24"/>
      </g>
      <g id="Graphic_97">
        <path d="M 282.9815 420.011 L 280.2803 422.7123 L 280.2803 426.9442 L 260.3474 426.9442 L 260.3474 412.789 L 285.4802 412.789 L 285.4802 420.011 Z" fill="black" fill-opacity="0"/>
        <path d="M 282.9815 420.011 L 280.2803 422.7123 L 280.2803 426.9442 L 260.3474 426.9442 L 260.3474 412.789 L 285.4802 412.789 L 285.4802 420.011 Z" stroke="red" stroke-linecap="butt" stroke-linejoin="round" stroke-width=".24"/>
      </g>
      <g id="Graphic_98">
        <path d="M 337.2749 393.8606 L 339.1133 395.699 L 349.5992 385.2131 L 347.7608 383.3747 L 358.3829 372.7526 L 360.2213 374.591 L 370.7072 364.1051 L 368.8688 362.2667 L 379.4909 351.6446 L 381.3293 353.483 L 386.8446 347.9677 L 392.6809 353.804 L 396.6522 349.8327 L 402.4247 355.6051 L 405.0421 352.9877 L 410.3304 358.276 L 421.1031 347.5033 L 416.4283 342.8286 L 416.4283 337.5663 L 368.2019 337.5663 L 368.2019 341.3844 L 357.5372 341.3844 L 357.5372 337.5663 L 339.1805 337.5663 L 339.1805 343.2798 L 331.5967 343.2798 L 331.5967 339.4748 L 329.76 339.4748 L 329.76 338.8167 L 319.1463 338.8167 L 319.1463 343.2798 L 297.8493 343.2798 L 297.8493 315.4355 L 286.2505 315.4355 L 286.2505 330.2648 L 288.8505 330.2648 L 288.8505 345.2867 L 286.2505 345.2867 L 286.2505 360.116 L 288.8505 360.116 L 288.8505 375.1379 L 286.2505 375.1379 L 286.2505 389.9673 L 288.8505 389.9673 L 288.8505 404.9892 L 286.2505 404.9892 L 286.2505 419.8185 L 288.8505 419.8185 L 288.8505 434.8404 L 286.2505 434.8404 L 286.2505 449.6697 L 288.8505 449.6697 L 288.8505 463.1509 L 299.515 463.1509 L 299.515 440.5668 L 296.8803 437.9321 L 307.3832 427.4291 L 305.5448 425.5907 L 316.1669 414.9686 L 318.0053 416.807 L 328.4912 406.3211 L 326.6528 404.4827 Z" fill="black" fill-opacity="0"/>
        <path d="M 337.2749 393.8606 L 339.1133 395.699 L 349.5992 385.2131 L 347.7608 383.3747 L 358.3829 372.7526 L 360.2213 374.591 L 370.7072 364.1051 L 368.8688 362.2667 L 379.4909 351.6446 L 381.3293 353.483 L 386.8446 347.9677 L 392.6809 353.804 L 396.6522 349.8327 L 402.4247 355.6051 L 405.0421 352.9877 L 410.3304 358.276 L 421.1031 347.5033 L 416.4283 342.8286 L 416.4283 337.5663 L 368.2019 337.5663 L 368.2019 341.3844 L 357.5372 341.3844 L 357.5372 337.5663 L 339.1805 337.5663 L 339.1805 343.2798 L 331.5967 343.2798 L 331.5967 339.4748 L 329.76 339.4748 L 329.76 338.8167 L 319.1463 338.8167 L 319.1463 343.2798 L 297.8493 343.2798 L 297.8493 315.4355 L 286.2505 315.4355 L 286.2505 330.2648 L 288.8505 330.2648 L 288.8505 345.2867 L 286.2505 345.2867 L 286.2505 360.116 L 288.8505 360.116 L 288.8505 375.1379 L 286.2505 375.1379 L 286.2505 389.9673 L 288.8505 389.9673 L 288.8505 404.9892 L 286.2505 404.9892 L 286.2505 419.8185 L 288.8505 419.8185 L 288.8505 434.8404 L 286.2505 434.8404 L 286.2505 449.6697 L 288.8505 449.6697 L 288.8505 463.1509 L 299.515 463.1509 L 299.515 440.5668 L 296.8803 437.9321 L 307.3832 427.4291 L 305.5448 425.5907 L 316.1669 414.9686 L 318.0053 416.807 L 328.4912 406.3211 L 326.6528 404.4827 Z" stroke="fuchsia" stroke-linecap="butt" stroke-linejoin="round" stroke-width=".24"/>
      </g>
      <g id="Graphic_99">
        <path d="M 297.8493 352.1236 L 297.8493 373.4371 L 326.2522 373.4371 L 335.3309 382.5158 L 336.091 382.5158 L 366.4832 352.1236 Z" fill="black" fill-opacity="0"/>
        <path d="M 297.8493 352.1236 L 297.8493 373.4371 L 326.2522 373.4371 L 335.3309 382.5158 L 336.091 382.5158 L 366.4832 352.1236 Z" stroke="fuchsia" stroke-linecap="butt" stroke-linejoin="round" stroke-width=".24"/>
      </g>
      <g id="Graphic_100">
        <path d="M 324.0233 378.8424 L 326.8018 381.6209 L 322.6393 385.7835 L 322.6393 382.6702 L 315.1823 382.6702 L 315.1823 390.9302 L 300.1604 390.9302 L 300.1604 378.6457 L 315.1823 378.6457 L 315.1823 381.8998 L 323.321 381.8998 L 323.321 378.8424 Z" fill="black" fill-opacity="0"/>
        <path d="M 324.0233 378.8424 L 326.8018 381.6209 L 322.6393 385.7835 L 322.6393 382.6702 L 315.1823 382.6702 L 315.1823 390.9302 L 300.1604 390.9302 L 300.1604 378.6457 L 315.1823 378.6457 L 315.1823 381.8998 L 323.321 381.8998 L 323.321 378.8424 Z" stroke="fuchsia" stroke-linecap="butt" stroke-linejoin="round" stroke-width=".24"/>
      </g>
      <g id="Graphic_101">
        <rect x="386.9302" y="310.6971" width="9.1451" height="6.997" fill="black" fill-opacity="0"/>
        <rect x="386.9302" y="310.6971" width="9.1451" height="6.997" stroke="red" stroke-linecap="butt" stroke-linejoin="round" stroke-width=".24"/>
      </g>
      <g id="Graphic_102">
        <rect x="374.0235" y="329.799" width="9.1451" height="6.9969" fill="black" fill-opacity="0"/>
        <rect x="374.0235" y="329.799" width="9.1451" height="6.9969" stroke="red" stroke-linecap="butt" stroke-linejoin="round" stroke-width=".24"/>
      </g>
      <g id="Graphic_103">
        <rect x="298.6197" y="308.3097" width="13.8592" height="13.1758" fill="black" fill-opacity="0"/>
        <rect x="298.6197" y="308.3097" width="13.8592" height="13.1758" stroke="red" stroke-linecap="butt" stroke-linejoin="round" stroke-width=".24"/>
      </g>
      <g id="Graphic_104">
        <rect x="298.6197" y="322.0633" width="13.8592" height="8.3776" fill="black" fill-opacity="0"/>
        <rect x="298.6197" y="322.0633" width="13.8592" height="8.3776" stroke="red" stroke-linecap="butt" stroke-linejoin="round" stroke-width=".24"/>
      </g>
      <g id="Graphic_105">
        <rect x="298.6197" y="331.0186" width="14.7634" height="11.4909" fill="black" fill-opacity="0"/>
        <rect x="298.6197" y="331.0186" width="14.7634" height="11.4909" stroke="red" stroke-linecap="butt" stroke-linejoin="round" stroke-width=".24"/>
      </g>
      <g id="Graphic_106">
        <rect x="313.0567" y="308.3097" width="11.2465" height="7.0823" fill="black" fill-opacity="0"/>
        <rect x="313.0567" y="308.3097" width="11.2465" height="7.0823" stroke="red" stroke-linecap="butt" stroke-linejoin="round" stroke-width=".24"/>
      </g>
      <g id="Graphic_107">
        <rect x="313.0567" y="315.9698" width="11.2465" height="7.8479" fill="black" fill-opacity="0"/>
        <rect x="313.0567" y="315.9698" width="11.2465" height="7.8479" stroke="red" stroke-linecap="butt" stroke-linejoin="round" stroke-width=".24"/>
      </g>
      <g id="Graphic_108">
        <rect x="343.113" y="310.6971" width="11.6226" height="6.997" fill="black" fill-opacity="0"/>
        <rect x="343.113" y="310.6971" width="11.6226" height="6.997" stroke="red" stroke-linecap="butt" stroke-linejoin="round" stroke-width=".24"/>
      </g>
      <g id="Graphic_109">
        <rect x="343.113" y="320.3195" width="11.6226" height="6.9969" fill="black" fill-opacity="0"/>
        <rect x="343.113" y="320.3195" width="11.6226" height="6.9969" stroke="red" stroke-linecap="butt" stroke-linejoin="round" stroke-width=".24"/>
      </g>
      <g id="Graphic_110">
        <rect x="343.113" y="329.799" width="11.6226" height="6.9969" fill="black" fill-opacity="0"/>
        <rect x="343.113" y="329.799" width="11.6226" height="6.9969" stroke="red" stroke-linecap="butt" stroke-linejoin="round" stroke-width=".24"/>
      </g>
      <g id="Graphic_111">
        <rect x="374.0235" y="310.6971" width="9.1451" height="6.997" fill="black" fill-opacity="0"/>
        <rect x="374.0235" y="310.6971" width="9.1451" height="6.997" stroke="red" stroke-linecap="butt" stroke-linejoin="round" stroke-width=".24"/>
      </g>
      <g id="Graphic_112">
        <rect x="374.0235" y="320.3195" width="9.1451" height="6.9969" fill="black" fill-opacity="0"/>
        <rect x="374.0235" y="320.3195" width="9.1451" height="6.9969" stroke="red" stroke-linecap="butt" stroke-linejoin="round" stroke-width=".24"/>
      </g>
      <g id="Graphic_113">
        <rect x="386.9302" y="320.3195" width="9.1451" height="6.9969" fill="black" fill-opacity="0"/>
        <rect x="386.9302" y="320.3195" width="9.1451" height="6.9969" stroke="red" stroke-linecap="butt" stroke-linejoin="round" stroke-width=".24"/>
      </g>
      <g id="Graphic_114">
        <rect x="386.9302" y="329.799" width="9.1451" height="6.9969" fill="black" fill-opacity="0"/>
        <rect x="386.9302" y="329.799" width="9.1451" height="6.9969" stroke="red" stroke-linecap="butt" stroke-linejoin="round" stroke-width=".24"/>
      </g>
      <g id="Graphic_115">
        <rect x="412.9395" y="310.6971" width="9.1451" height="6.997" fill="black" fill-opacity="0"/>
        <rect x="412.9395" y="310.6971" width="9.1451" height="6.997" stroke="red" stroke-linecap="butt" stroke-linejoin="round" stroke-width=".24"/>
      </g>
      <g id="Graphic_116">
        <rect x="412.9395" y="320.3195" width="9.1451" height="6.9969" fill="black" fill-opacity="0"/>
        <rect x="412.9395" y="320.3195" width="9.1451" height="6.9969" stroke="red" stroke-linecap="butt" stroke-linejoin="round" stroke-width=".24"/>
      </g>
      <g id="Graphic_117">
        <rect x="412.9395" y="329.799" width="9.1451" height="6.9969" fill="black" fill-opacity="0"/>
        <rect x="412.9395" y="329.799" width="9.1451" height="6.9969" stroke="red" stroke-linecap="butt" stroke-linejoin="round" stroke-width=".24"/>
      </g>
      <g id="Graphic_118">
        <path d="M 338.4102 342.5095 L 332.367 342.5095 L 332.367 338.7044 L 330.5304 338.7044 L 330.5304 333.3722 L 332.367 333.3722 L 332.367 314.4133 L 341.8465 314.4133 L 341.8465 335.6236 L 338.4102 335.6236 Z" fill="black" fill-opacity="0"/>
        <path d="M 338.4102 342.5095 L 332.367 342.5095 L 332.367 338.7044 L 330.5304 338.7044 L 330.5304 333.3722 L 332.367 333.3722 L 332.367 314.4133 L 341.8465 314.4133 L 341.8465 335.6236 L 338.4102 335.6236 Z" stroke="red" stroke-linecap="butt" stroke-linejoin="round" stroke-width=".24"/>
      </g>
      <g id="Graphic_119">
        <rect x="292.9901" y="308.3097" width="4.8592" height="6.3554" fill="black" fill-opacity="0"/>
        <rect x="292.9901" y="308.3097" width="4.8592" height="6.3554" stroke="red" stroke-linecap="butt" stroke-linejoin="round" stroke-width=".24"/>
      </g>
    </g>
  </g>
</svg>
